<svg xmlns="http://www.w3.org/2000/svg" viewBox="0 0 800 500"><rect width="800" height="500" fill="#fff6dc"/><path d="M0 410Q200 330 400 410T800 400v100H0z" fill="#d6a83c"/><g stroke="#9b6d19" stroke-width="8" fill="#f3c95f"><path d="M220 410V130M350 410V100M480 410V140M590 410V115"/><ellipse cx="190" cy="170" rx="28" ry="12"/><ellipse cx="205" cy="210" rx="28" ry="12"/><ellipse cx="220" cy="250" rx="28" ry="12"/><ellipse cx="335" cy="140" rx="28" ry="12"/><ellipse cx="350" cy="180" rx="28" ry="12"/><ellipse cx="365" cy="220" rx="28" ry="12"/><ellipse cx="465" cy="175" rx="28" ry="12"/><ellipse cx="480" cy="215" rx="28" ry="12"/><ellipse cx="495" cy="255" rx="28" ry="12"/></g><text x="40" y="80" font-family="sans-serif" font-size="42" font-weight="700" fill="#765214">Wheat grains</text></svg>
